# xmcd CD database file
#
# Track frame offsets:
#	150
#	16810
#	37507
#	53523
#	68459
#	84943
#	99575
#	116334
#	132869
#	148961
#	168522
#	184113
#	203721
#
# Disc length: 2890 seconds
#
# Revision: 2
# Processed by: cddbd v1.5.2PL0 Copyright (c) Steve Scherf et al.
# Submitted via: Feurio! 1.67 - http://www.feurio.com
#
DISCID=9b0b480d
DTITLE=Markus Rill - Wild Blue and True
DYEAR=2011
DGENRE=Blues
TTITLE0=Wild Blue True-Hearted Man
TTITLE1=Your Own Private Rainbow
TTITLE2=The Kid From Tupelo
TTITLE3=Skinny Teddy
TTITLE4=Comforting Thought
TTITLE5=The Boy Who Never Was My Friend
TTITLE6=Fast Forward
TTITLE7=Girl Of Many Secrets
TTITLE8=Natascha
TTITLE9=Future Memory
TTITLE10=Maybe More
TTITLE11=Time To Go
TTITLE12=Falling Into Place
EXTD=
EXTT0=
EXTT1=
EXTT2=
EXTT3=
EXTT4=
EXTT5=
EXTT6=
EXTT7=
EXTT8=
EXTT9=
EXTT10=
EXTT11=
EXTT12=
PLAYORDER=
